<svg xmlns="http://www.w3.org/2000/svg" width="16" height="16" fill="currentColor" viewBox="0 0 16 16">
  <path fill="currentColor" d="M2.468 10.467V5.533c0-.55 0-.997.029-1.357.03-.366.093-.69.247-.992l.097-.175a2.54 2.54 0 0 1 1.01-.932l.114-.053a2.77 2.77 0 0 1 .878-.194c.36-.03.806-.029 1.357-.029h2.808c.464 0 .783-.003 1.088.07l.192.055c.189.061.37.145.54.249l.099.064c.226.158.433.368.72.655l.792.792.227.23c.21.213.37.388.493.59l.097.173c.09.177.16.365.206.558l.024.116c.048.272.046.567.046.973v4.14c0 .552 0 .998-.029 1.358-.026.32-.078.61-.194.878l-.053.114a2.531 2.531 0 0 1-.932 1.009l-.175.097c-.301.154-.626.217-.992.247-.36.03-.806.03-1.357.03H6.2c-.551 0-.997 0-1.357-.03a2.761 2.761 0 0 1-.878-.193l-.114-.054a2.533 2.533 0 0 1-1.01-.932l-.097-.174c-.154-.301-.217-.626-.247-.992-.03-.36-.029-.806-.029-1.357ZM8.666 8.8l.108.011a.532.532 0 0 1 0 1.042l-.108.011H6A.532.532 0 0 1 6 8.8h2.666ZM10 6.135l.107.01a.532.532 0 0 1 0 1.043L10 7.199H6a.532.532 0 0 1 0-1.064h4Zm-6.468 4.332c0 .569 0 .963.026 1.27.024.3.07.47.134.596l.057.101c.14.23.343.418.585.54l.104.045c.115.041.266.072.492.09.307.025.701.026 1.27.026h3.6c.569 0 .964 0 1.27-.026.3-.024.47-.07.596-.134l.101-.057c.23-.141.418-.343.54-.585l.046-.104a1.94 1.94 0 0 0 .09-.492 18 18 0 0 0 .025-1.27V6.326c0-.386-.002-.579-.019-.716l-.022-.124a1.464 1.464 0 0 0-.12-.324l-.055-.1a1.433 1.433 0 0 0-.178-.226l-.387-.397-.792-.792a6.893 6.893 0 0 0-.52-.493l-.103-.072a1.47 1.47 0 0 0-.313-.145l-.111-.031c-.155-.037-.326-.04-.84-.04H6.2c-.569 0-.963 0-1.27.025a1.943 1.943 0 0 0-.492.09l-.104.045c-.242.123-.444.31-.585.54l-.057.1c-.064.127-.11.296-.134.597-.025.307-.026.702-.026 1.27v4.934Z"/>
</svg>
